<?xml version="1.0" standalone="no"?>
<!DOCTYPE svg PUBLIC "-//W3C//DTD SVG 20010904//EN"
 "http://www.w3.org/TR/2001/REC-SVG-20010904/DTD/svg10.dtd">
<svg version="1.0" xmlns="http://www.w3.org/2000/svg"
 width="800.000000pt" height="800.000000pt" viewBox="0 0 800.000000 800.000000"
 preserveAspectRatio="xMidYMid meet">
<metadata>
Created by potrace 1.14, written by Peter Selinger 2001-2017
</metadata>
<g transform="translate(0.000000,800.000000) scale(0.100000,-0.100000)"
fill="#000000" stroke="none">
<path d="M1722 7979 c-232 -34 -390 -83 -597 -184 -282 -137 -507 -320 -715
-581 -52 -65 -150 -228 -204 -339 -106 -217 -168 -426 -194 -655 -9 -84 -9
-4355 0 -4440 16 -145 49 -285 100 -435 31 -90 133 -314 167 -364 9 -14 39
-60 66 -101 27 -41 57 -84 67 -95 9 -11 34 -40 54 -65 254 -314 632 -551 1051
-660 223 -58 40 -53 2443 -56 2245 -3 2225 -3 2410 31 285 52 618 201 850 380
372 288 641 716 735 1173 13 62 27 143 32 180 10 84 11 4351 1 4447 -9 79 -24
178 -33 205 -3 10 -8 28 -10 41 -22 111 -100 322 -171 459 -124 242 -331 494
-524 639 -19 14 -37 29 -40 32 -19 25 -227 152 -335 204 -201 98 -383 156
-565 180 -30 4 -64 10 -75 13 -11 4 -1003 7 -2205 8 -2075 2 -2191 1 -2308
-17z"/>
</g>
</svg>
