<?xml version="1.0" standalone="no"?>
<!DOCTYPE svg PUBLIC "-//W3C//DTD SVG 20010904//EN"
 "http://www.w3.org/TR/2001/REC-SVG-20010904/DTD/svg10.dtd">
<svg version="1.0" xmlns="http://www.w3.org/2000/svg"
 width="800.000000pt" height="800.000000pt" viewBox="0 0 800.000000 800.000000"
 preserveAspectRatio="xMidYMid meet">
<metadata>
Created by potrace 1.14, written by Peter Selinger 2001-2017
</metadata>
<g transform="translate(0.000000,800.000000) scale(0.100000,-0.100000)"
fill="#000000" stroke="none">
<path d="M3680 6680 l0 -80 -167 -2 -168 -3 3 -82 2 -83 -167 -2 -168 -3 -3
-77 -3 -77 -82 -3 -82 -3 0 -80 0 -80 -165 -5 -165 -5 0 -150 0 -150 -80 -5
-80 -5 0 -158 0 -157 -77 0 -78 0 -1 -485 c-1 -267 -2 -491 -3 -497 -1 -9 22
-14 77 -16 l77 -3 2 -264 c1 -146 2 -277 2 -292 1 -28 0 -28 -64 -29 -36 -1
-73 -2 -82 -2 -17 -2 -18 -20 -18 -226 0 -123 3 -231 6 -240 5 -13 22 -16 80
-16 l73 0 3 -77 3 -78 80 -5 80 -5 0 -75 0 -75 165 -3 165 -2 -3 -480 -2 -480
85 0 85 0 0 -85 0 -85 85 0 84 0 3 -87 3 -88 80 -5 80 -5 0 -80 0 -80 168 -3
167 -2 0 -90 0 -90 418 2 417 3 5 85 5 85 165 5 165 5 0 80 0 80 80 5 80 5 3
88 3 87 79 0 79 0 3 83 3 82 88 3 87 3 0 479 0 480 123 0 c67 0 139 3 160 6
l37 7 0 73 0 74 79 0 c91 0 91 0 91 95 l0 64 78 3 77 3 3 237 2 237 -82 3
c-59 2 -83 7 -82 16 1 6 2 138 3 292 l1 280 74 0 c58 0 75 3 80 16 3 9 6 233
6 499 l0 484 -81 3 -81 3 -1 155 -2 155 -82 3 -83 3 0 154 0 155 -165 0 -165
0 0 85 0 85 -85 0 -85 0 0 80 0 80 -165 0 -165 0 2 83 3 82 -167 -3 -168 -3 0
86 0 85 -420 0 -420 0 0 -80z m830 -175 l0 -85 165 0 164 0 3 -72 3 -73 163
-9 162 -9 0 -83 0 -84 85 0 84 0 3 -77 3 -78 77 -3 77 -3 3 -72 3 -72 83 -3
82 -3 0 -154 0 -154 -77 -3 -78 -3 -3 -272 -2 -273 -85 0 -85 0 0 -80 0 -80
85 0 85 0 0 -135 0 -135 80 0 80 0 0 -305 0 -305 80 0 80 0 0 -161 0 -161 -82
3 -83 4 -5 -80 c-6 -90 5 -81 -105 -84 l-55 -1 0 -75 0 -75 -162 4 c-90 2
-200 5 -245 5 l-83 1 0 75 c0 64 -2 75 -17 76 -10 0 -71 3 -136 5 l-118 5 2
-83 2 -83 48 2 49 3 0 -75 0 -75 -39 0 -39 0 -7 -74 c-4 -41 -4 -79 -1 -85 4
-6 25 -11 47 -11 l39 0 0 -71 c0 -61 -2 -70 -16 -65 -9 3 -42 6 -75 6 l-59 0
0 62 c0 34 -3 59 -6 56 -3 -4 -9 -113 -12 -245 l-7 -238 -75 0 -75 0 -3 93 -3
93 -82 -3 -82 -3 -3 -93 -3 -93 -77 3 -77 3 -3 87 c-3 101 -3 101 -107 96
l-60 -3 0 -90 0 -90 -60 -3 c-105 -5 -105 -5 -105 96 l0 87 -52 -1 c-29 -1
-65 -3 -80 -3 l-27 -1 -3 -87 -3 -88 -80 0 -80 0 3 172 c4 169 3 172 -19 183
-15 8 -45 11 -85 7 l-62 -6 -4 64 -3 64 40 3 40 3 3 88 3 87 -46 0 -45 0 0 69
0 70 48 3 47 3 3 83 3 83 -133 -3 -133 -3 -3 -77 -3 -78 -157 -1 c-86 -1 -188
-3 -227 -4 -38 -1 -76 0 -82 3 -9 3 -13 27 -13 73 0 83 -12 94 -101 86 l-59
-5 0 73 c0 85 0 85 -98 85 l-67 0 -3 155 -4 155 81 0 81 0 0 300 0 299 78 3
77 3 3 131 c3 151 -2 144 104 144 l56 0 4 80 3 80 -80 0 -80 0 -3 267 c-2 146
-4 269 -6 272 -2 3 -39 4 -83 1 l-78 -5 -3 -337 -2 -338 -69 0 -68 0 -6 107
c-4 58 -7 211 -7 340 l0 233 80 0 80 0 0 160 0 160 80 0 79 0 3 73 3 72 78 3
77 3 0 64 c0 95 0 95 91 95 l79 0 0 85 c0 74 2 85 18 85 146 1 302 6 306 10 3
3 7 37 9 75 l3 70 167 3 167 2 0 85 0 85 410 0 410 0 0 -85z m1319 -1380 l-2
-345 -73 0 -74 0 0 345 0 345 76 0 75 0 -2 -345z m-2649 -2547 c0 -29 3 -104
7 -165 l6 -113 78 0 78 0 3 -62 3 -63 53 -19 c37 -13 52 -24 52 -37 0 -16 10
-18 115 -17 l115 2 0 83 c0 100 -12 94 185 90 l140 -2 0 -80 0 -80 -140 -2
c-196 -4 -185 1 -185 -86 l0 -72 163 0 162 0 1 45 c1 25 2 57 3 73 l1 27 80 0
80 0 0 -75 0 -75 165 0 165 0 0 75 0 75 111 0 c102 0 111 2 116 20 3 13 20 24
47 32 55 15 66 32 66 95 l0 53 80 0 80 0 1 -42 c0 -24 2 -60 4 -80 2 -21 0
-40 -6 -43 -5 -4 -9 -45 -9 -93 l0 -87 -78 -1 c-151 -1 -237 -7 -249 -16 -9
-7 -10 -33 -6 -88 l6 -79 -84 -3 -84 -3 -3 -81 -3 -82 -147 -7 c-81 -4 -263
-5 -404 -3 l-257 3 6 61 c3 34 3 74 -1 88 -6 25 -9 26 -85 26 l-79 0 0 82 c0
96 1 96 -113 98 -41 0 -109 1 -152 2 l-78 1 7 89 c5 64 3 88 -5 88 -7 0 -11 6
-10 13 1 6 1 42 0 79 l-1 67 -77 3 -78 3 -3 155 c-1 85 0 160 2 167 4 9 28 13
81 13 l75 0 0 -52z m1995 -118 l0 -165 -70 -3 c-38 -1 -76 2 -84 7 -10 7 -12
39 -6 170 l8 161 76 -2 76 -3 0 -165z m-667 -267 l3 -83 -166 0 -165 0 0 78
c0 43 3 82 7 86 4 3 77 5 162 4 l156 -3 3 -82z m659 -25 c-2 -18 -4 -4 -4 32
0 36 2 50 4 33 2 -18 2 -48 0 -65z m-17 46 c0 -8 -19 -13 -24 -6 -3 5 1 9 9 9
8 0 15 -2 15 -3z m-24 -40 c1 -9 0 -13 -3 -10 -4 3 -13 0 -22 -7 -14 -10 -14
-10 -5 3 6 8 10 23 8 34 -2 14 0 16 9 7 6 -6 12 -18 13 -27z"/>
<path d="M3015 4604 c-6 -2 -9 -34 -7 -74 4 -67 3 -70 -20 -71 -13 0 -50 -1
-83 -2 l-60 -2 -3 -77 -3 -77 -77 -3 -77 -3 -3 -65 c-2 -36 -1 -128 3 -205 l7
-140 76 0 77 0 1 -75 2 -75 83 0 c67 0 84 -3 85 -15 1 -8 2 -41 3 -72 l1 -57
165 -3 165 -3 0 71 0 72 31 6 c17 3 58 6 90 6 l59 0 0 70 0 70 80 0 80 0 0 70
0 70 80 0 79 0 3 63 3 62 77 3 76 3 7 122 c4 67 5 136 3 152 l-3 30 -157 3
-157 3 -3 72 -3 72 -335 2 c-184 1 -339 0 -345 -3z"/>
<path d="M4499 4603 c0 -5 0 -38 1 -75 l1 -68 -78 -1 c-90 -1 -225 -6 -235 -8
-10 -1 -10 -107 -1 -218 l6 -83 73 0 73 0 3 -62 3 -63 78 -3 77 -3 0 -54 c0
-84 1 -85 91 -85 l79 0 0 -76 0 -75 85 3 85 3 0 -72 0 -73 170 0 169 0 3 73 3
72 80 1 80 1 3 71 3 72 32 1 c18 0 52 1 77 2 l45 2 3 208 2 207 -78 0 -79 0
-2 72 c-1 39 -4 75 -7 80 -3 4 -40 7 -82 6 l-77 -3 0 75 0 75 -342 3 c-189 1
-343 -1 -344 -5z"/>
<path d="M4009 3863 c0 -5 0 -39 1 -78 l1 -70 -73 -2 c-40 -1 -76 -2 -79 -2
-4 -1 -10 -64 -14 -141 -8 -158 -3 -150 -98 -147 l-57 2 0 -147 0 -148 80 0
80 0 0 -85 0 -85 85 0 85 0 0 85 0 86 78 -3 77 -3 3 -83 3 -83 82 3 82 3 3 83
3 82 79 0 80 0 0 145 0 144 -75 3 -75 3 -6 140 c-3 77 -7 141 -9 144 -3 2 -39
3 -80 2 l-75 -2 0 80 0 81 -90 0 c-49 0 -90 -3 -91 -7z"/>
<path d="M3486 3408 c3 -4 11 -5 19 -1 21 7 19 12 -4 10 -11 0 -18 -5 -15 -9z"/>
<path d="M2748 3393 c7 -3 16 -2 19 1 4 3 -2 6 -13 5 -11 0 -14 -3 -6 -6z"/>
<path d="M2788 3393 c7 -3 16 -2 19 1 4 3 -2 6 -13 5 -11 0 -14 -3 -6 -6z"/>
<path d="M4681 3204 c0 -11 3 -14 6 -6 3 7 2 16 -1 19 -3 4 -6 -2 -5 -13z"/>
<path d="M3187 1224 c-4 -4 -7 -38 -7 -76 l0 -68 -165 0 -165 0 0 -75 c0 -75
0 -75 -27 -76 -39 -1 -106 -1 -120 0 -9 1 -13 23 -13 76 l0 75 -247 -2 -248
-3 0 -75 0 -75 242 -3 242 -2 3 -73 3 -72 85 0 85 0 3 73 3 72 74 0 c65 0 75
-2 76 -17 0 -10 1 -43 2 -73 l2 -55 170 0 170 0 3 73 3 72 159 0 159 0 3 -72
3 -73 415 0 415 0 3 73 3 72 159 0 159 0 3 -72 3 -73 168 -3 167 -2 0 75 0 75
80 0 80 0 0 -75 0 -75 85 0 85 0 0 75 0 75 243 2 242 3 3 78 3 77 -245 0 -245
0 -3 -77 -3 -78 -65 -1 c-36 0 -71 2 -77 4 -9 3 -13 28 -13 78 l0 73 -82 3
-83 3 -3 73 -3 72 -164 0 c-150 0 -165 -2 -166 -17 0 -10 -1 -43 -2 -73 l-2
-55 -167 -3 -168 -2 0 75 0 75 -410 0 -410 0 0 -75 0 -75 -165 0 -164 0 -3 73
-3 72 -80 3 c-45 1 -84 0 -88 -4z"/>
</g>
</svg>
